<?xml version="1.0" encoding="UTF-8"?>
<svg xmlns="http://www.w3.org/2000/svg" xmlns:xlink="http://www.w3.org/1999/xlink" width="512px" height="512px" viewBox="0 0 512 512"  version="1.1">
  <rect width="100%" height="100%" fill="black" />
<g id="surface1" >
<path style="fill-rule:nonzero;fill:rgb(100%,100%,100%);fill-opacity:1;stroke-width:5;stroke-linecap:butt;stroke-linejoin:miter;stroke:rgb(100%,100%,100%);stroke-opacity:1;stroke-miterlimit:4;" d="M 259.499955 156.100388 C 253.800518 156.899567 243.499719 159.899826 244.199204 160.500641 C 244.400452 160.700912 248.800566 160.000916 253.999812 158.900375 C 275.300896 154.700394 296.000188 158.200378 314.20048 168.999786 C 324.399678 175.099487 337.900915 188.500519 345.700762 200.299377 C 352.500227 210.499878 354.700284 212.899323 353.000418 208.499069 C 349.499084 199.399109 335.399963 182.299728 323.899488 173.499222 C 305.099357 158.900375 282.299656 152.800674 259.499955 156.100388 M 204.699781 175.400848 C 195.200069 184.800262 189.100089 193.400497 183.599947 205.100174 C 176.700834 219.599838 174.600424 228.999252 174.500777 244.500275 C 174.500777 255.400772 174.899366 258.700485 176.800481 265.000458 C 185.299813 291.899796 206.200353 314.400787 233.800711 326.199646 C 242.499338 329.999084 250.400785 331.900711 261.199821 332.900162 C 271.699915 333.899612 273.999619 333.499069 273.999619 330.899353 C 273.999619 328.400726 271.299371 327.399368 262.000907 326.699371 C 240.600177 324.900742 220.299474 315.299149 204.400839 299.39949 C 180.399509 275.399323 172.900558 246.600266 182.599565 215.8004 C 187.300575 200.699921 194.299335 189.000244 207.099133 174.700851 C 210.399218 171.000595 212.900171 168.000336 212.599275 168.000336 C 212.39998 168.000336 208.800953 171.300049 204.699781 175.400848 " transform="matrix(1.999238,0,0,2.048,-293.790476,-245.76)"/>
<path style="fill-rule:nonzero;fill:rgb(100%,100%,100%);fill-opacity:1;stroke-width:5;stroke-linecap:butt;stroke-linejoin:miter;stroke:rgb(100%,100%,100%);stroke-opacity:1;stroke-miterlimit:4;" d="M 309.999661 173.40004 C 309.999661 173.699493 312.600261 175.700302 315.800699 177.899475 C 328.000659 186.299438 339.999371 201.100464 348.199761 217.700119 C 350.399817 222.300644 352.500227 226.199265 352.90077 226.500626 C 353.400961 226.700897 354.499035 226.399536 355.399769 225.699539 C 357.099635 224.499817 357.099635 224.099274 355.599064 220.700378 C 352.599874 213.399048 340.800457 197.100754 333.700096 190.299149 C 329.700526 186.6008 323.399297 181.39946 319.499374 178.900833 C 310.599499 173.100586 309.999661 172.799225 309.999661 173.40004 M 275 175.999756 C 275.799133 176.499481 277.399352 176.999207 278.599027 176.999207 C 281.799465 176.999207 294.399969 181.500549 301.099787 185.099716 C 308.99928 189.299698 319.600975 199.200745 325.599354 207.999344 C 328.199954 211.80069 330.499658 214.800949 330.800554 214.499588 C 331.800935 213.500137 321.400489 199.70047 315.09926 193.699951 C 307.000472 186.099167 298.200244 180.899734 288.499283 178.200836 C 280.099599 175.799484 272.799943 174.599762 275 175.999756 M 248.999861 184.599991 C 229.400598 189.799423 213.099466 205.899353 206.399648 226.800079 C 204.699781 232.100601 203.300811 254.399414 204.600134 255.299683 C 205.100325 255.499954 205.600515 251.700516 205.79981 246.600266 C 206.399648 227.500076 211.800143 214.200134 224.000103 202.000732 C 235.600225 190.400238 248.300376 185.000534 264.200964 185.000534 C 268.700725 185.000534 272.000811 184.599991 272.000811 183.999176 C 272.000811 182.5 255.400737 182.900543 248.999861 184.599991 " transform="matrix(1.999238,0,0,2.048,-293.790476,-245.76)"/>
<path style="fill-rule:nonzero;fill:rgb(100%,100%,100%);fill-opacity:1;stroke-width:5;stroke-linecap:butt;stroke-linejoin:miter;stroke:rgb(100%,100%,100%);stroke-opacity:1;stroke-miterlimit:4;" d="M 298.00095 190.400238 C 298.00095 190.60051 299.900111 191.899414 302.299462 193.299408 C 307.699957 196.499939 316.799127 205.899353 321.400489 213.000412 C 325.999897 220.000381 326.099545 218.499298 321.500136 210.999603 C 317.500566 204.400177 307.799604 194.899673 301.900873 192.000504 C 299.800463 190.899963 298.00095 190.199966 298.00095 190.400238 M 252.700489 217.499847 C 234.699491 224.299545 225.899264 246.10054 234.300902 262.599106 C 238.800663 271.500702 250.60008 279.999847 258.300279 279.999847 C 261.899306 279.999847 259.499955 276.799316 254.400356 274.899597 C 235.199682 267.699356 229.199349 245 242.600939 230.099792 C 249.500051 222.399826 253.70087 220.500107 263.999716 220.500107 C 271.600267 220.500107 273.100839 220.799561 277.899542 223.500366 C 284.099169 226.899261 289.200722 232.499237 291.699721 238.600845 C 293.600836 243.199463 296.699673 245 295.40035 240.700836 C 292.500808 231.299515 286.600122 223.700638 278.899923 219.500656 C 274.300515 217.099304 272.200105 216.599579 265.000097 216.300125 C 259.30066 216.099854 255.199488 216.500397 252.700489 217.499847 " transform="matrix(1.999238,0,0,2.048,-293.790476,-245.76)"/>
<path style="fill-rule:nonzero;fill:rgb(100%,100%,100%);fill-opacity:1;stroke-width:5;stroke-linecap:butt;stroke-linejoin:miter;stroke:rgb(100%,100%,100%);stroke-opacity:1;stroke-miterlimit:4;" d="M 257.700441 241.799469 C 253.900165 245.799179 253.999812 251.099701 257.899736 255.099411 C 259.80085 256.899948 261.899306 258.000488 263.700774 258.000488 C 267.299801 258.000488 272.600648 254.799957 273.499428 252.099152 C 274.099266 250.10025 274.800705 249.999161 294.900159 249.999161 C 309.700719 249.999161 315.900347 250.300522 316.799127 251.20079 C 318.399346 252.799149 318.299698 261.000748 316.500185 269.299622 C 312.400967 288.899536 295.599644 306.39946 276.000381 311.6008 C 272.3994 312.60025 268.999667 313.899155 268.399829 314.700241 C 267.799992 315.400238 265.099744 316.100235 262.399497 316.100235 C 257.899736 316.300507 257.999383 316.300507 264.499906 317.099686 C 270.400592 317.799683 272.600648 317.599411 278.49938 315.899963 C 304.10093 308.299179 323.000708 283.499832 323.000708 257.199402 C 323.000708 251.299973 322.699812 250.599976 319.899917 247.89917 L 316.799127 245 L 274.200867 245 L 271.199724 241.999741 C 267.000859 237.900848 261.500717 237.799759 257.700441 241.799469 M 268.399829 244.099731 C 271.799562 246.699448 271.799562 250.300522 268.399829 252.900238 C 265.199391 255.400772 263.200583 255.499954 260.19944 253.399963 C 257.399545 251.500244 257.299898 246.699448 260.000145 244.000549 C 262.600745 241.400833 265.099744 241.500015 268.399829 244.099731 M 335.399963 244.599457 C 335.700859 245.499725 336.099448 250.10025 336.099448 254.799957 C 336.199095 264.399643 337.699667 262.000198 337.900915 251.799698 C 338.000563 245.699997 337.400725 242.999191 335.800506 242.999191 C 335.200668 242.999191 335.099067 243.699188 335.399963 244.599457 M 367.500082 248.700256 C 370.70052 256.299133 370.999462 258.000488 369.600491 261.399384 C 368.60011 263.699646 366.400053 265.799637 362.199234 268.399353 C 358.799502 270.400162 354.299741 274.100418 352.199331 276.499863 C 348.299408 280.999298 341.59959 295.600052 343.000514 296.50032 C 343.899294 297.000046 349.000847 290.900345 353.29936 284.199829 C 355.999607 280.100937 359.500941 277.19986 368.000272 272.000427 C 370.299977 270.600433 373.000224 268.099899 374.100252 266.400452 C 377.599632 260.699387 375.899766 250.599976 371.099109 248.000259 C 368.09992 246.499176 366.700949 246.699448 367.500082 248.700256 " transform="matrix(1.999238,0,0,2.048,-293.790476,-245.76)"/>
<path style="fill-rule:nonzero;fill:rgb(100%,100%,100%);fill-opacity:1;stroke-width:5;stroke-linecap:butt;stroke-linejoin:miter;stroke:rgb(100%,100%,100%);stroke-opacity:1;stroke-miterlimit:4;" d="M 294.599263 258.09967 C 293.200293 266.999359 287.19996 275.599594 278.700629 281.100388 C 272.100458 285.399551 271.899209 286.099548 278.100791 283.000107 C 283.499332 280.200119 289.599312 274.499054 292.500808 269.599075 C 295.699292 264.100189 298.299892 254.000778 296.500378 254.000778 C 295.800893 254.000778 294.999806 255.799408 294.599263 258.09967 M 293.100645 317.999954 C 290.099502 319.60022 284.800609 321.700211 281.299275 322.699661 C 274.699104 324.59938 272.600648 326.399918 278.300085 325.299377 C 283.600933 324.299927 293.700483 320.300217 297.700054 317.599411 C 302.700006 314.200516 299.900111 314.499969 293.100645 317.999954 " transform="matrix(1.999238,0,0,2.048,-293.790476,-245.76)"/>
</g>
</svg>
